<svg xmlns="http://www.w3.org/2000/svg" viewBox="0 0 900 600" font-family="'Consolas', 'Courier New', monospace">
  <defs>
    <style>
      .code { font-size: 12px; }
      .sidebar-text { font-size: 11px; }
      .tab-text { font-size: 11px; }
      .status-text { font-size: 11px; }
      .terminal-text { font-size: 11px; }
      .titlebar-text { font-size: 11px; }
      .line-num { font-size: 12px; }
      .activity-icon { font-size: 14px; }
    </style>
  </defs>

  <!-- Title bar -->
  <rect x="0" y="0" width="900" height="30" fill="#12201A"/>
  <line x1="0" y1="30" x2="900" y2="30" stroke="#2A3E2C60" stroke-width="1"/>
  <text x="450" y="19" text-anchor="middle" class="titlebar-text" fill="#7AA878">app.ts — eyerest-vscode-theme</text>
  <!-- Window controls -->
  <circle cx="16" cy="15" r="5" fill="#E07A6C" opacity="0.8"/>
  <circle cx="34" cy="15" r="5" fill="#DEB974" opacity="0.8"/>
  <circle cx="52" cy="15" r="5" fill="#A9B56E" opacity="0.8"/>

  <!-- Activity bar -->
  <rect x="0" y="30" width="40" fill="#12201A" height="540"/>
  <line x1="40" y1="30" x2="40" y2="570" stroke="#2A3E2C60" stroke-width="1"/>
  <!-- File icon -->
  <rect x="12" y="45" width="16" height="16" rx="2" fill="none" stroke="#7AA878" stroke-width="1.2"/>
  <line x1="16" y1="49" x2="24" y2="49" stroke="#7AA878" stroke-width="1"/>
  <line x1="16" y1="53" x2="22" y2="53" stroke="#7AA878" stroke-width="1"/>
  <!-- Search icon -->
  <circle cx="20" cy="88" r="6" fill="none" stroke="#5A7A5A" stroke-width="1.2"/>
  <line x1="25" y1="93" x2="28" y2="96" stroke="#5A7A5A" stroke-width="1.2"/>
  <!-- Git icon -->
  <circle cx="20" cy="118" r="3" fill="none" stroke="#5A7A5A" stroke-width="1.2"/>
  <circle cx="20" cy="128" r="3" fill="none" stroke="#5A7A5A" stroke-width="1.2"/>
  <line x1="20" y1="121" x2="20" y2="125" stroke="#5A7A5A" stroke-width="1.2"/>
  <!-- Extensions icon -->
  <rect x="14" y="145" width="5" height="5" fill="#5A7A5A"/>
  <rect x="21" y="145" width="5" height="5" fill="#5A7A5A"/>
  <rect x="14" y="152" width="5" height="5" fill="#5A7A5A"/>
  <rect x="21" y="152" width="5" height="5" fill="#5A7A5A"/>

  <!-- Sidebar -->
  <rect x="40" y="30" width="180" height="540" fill="#12201A"/>
  <line x1="220" y1="30" x2="220" y2="570" stroke="#2A3E2C60" stroke-width="1"/>
  <text x="52" y="48" class="sidebar-text" fill="#7AA878" font-weight="bold">EXPLORER</text>
  <!-- File tree -->
  <text x="56" y="72" class="sidebar-text" fill="#A8D4A2">&#9660; src</text>
  <text x="72" y="90" class="sidebar-text" fill="#7CB87A">app.ts</text>
  <text x="72" y="106" class="sidebar-text" fill="#7AA878">utils.ts</text>
  <text x="72" y="122" class="sidebar-text" fill="#7AA878">types.ts</text>
  <text x="56" y="142" class="sidebar-text" fill="#7AA878">&#9654; node_modules</text>
  <text x="56" y="158" class="sidebar-text" fill="#7AA878">package.json</text>
  <text x="56" y="174" class="sidebar-text" fill="#7AA878">tsconfig.json</text>

  <!-- Tab bar -->
  <rect x="220" y="30" width="680" height="30" fill="#12201A"/>
  <line x1="220" y1="60" x2="900" y2="60" stroke="#2A3E2C60" stroke-width="1"/>
  <!-- Active tab -->
  <rect x="220" y="30" width="120" height="30" fill="#0C1610"/>
  <line x1="220" y1="30" x2="340" y2="30" stroke="#7CB87A" stroke-width="2"/>
  <text x="255" y="49" class="tab-text" fill="#A8D4A2">app.ts</text>
  <!-- Inactive tab -->
  <rect x="340" y="30" width="120" height="30" fill="#12201A"/>
  <line x1="340" y1="30" x2="340" y2="60" stroke="#2A3E2C60" stroke-width="1"/>
  <text x="375" y="49" class="tab-text" fill="#4A6A4A">utils.ts</text>

  <!-- Editor background -->
  <rect x="220" y="60" width="680" height="330" fill="#0C1610"/>

  <!-- Line numbers and code -->
  <!-- Line 1: import { UserConfig } from "./types"; -->
  <text x="235" y="80" class="line-num" fill="#3A5A3C">1</text>
  <text x="262" y="80" class="code" fill="#9EE0A0">import</text>
  <text x="305" y="80" class="code" fill="#7AA878"> { </text>
  <text x="322" y="80" class="code" fill="#B8D880">UserConfig</text>
  <text x="388" y="80" class="code" fill="#7AA878"> } </text>
  <text x="405" y="80" class="code" fill="#9EE0A0">from</text>
  <text x="436" y="80" class="code" fill="#6AAA5A"> "./types"</text>
  <text x="510" y="80" class="code" fill="#7AA878">;</text>

  <!-- Line 2: empty -->
  <text x="235" y="97" class="line-num" fill="#3A5A3C">2</text>

  <!-- Line 3: // Initialize application with config -->
  <text x="235" y="114" class="line-num" fill="#3A5A3C">3</text>
  <text x="262" y="114" class="code" fill="#5A7A5A">// Initialize application with config</text>

  <!-- Line 4: interface AppState { -->
  <text x="235" y="131" class="line-num" fill="#3A5A3C">4</text>
  <text x="262" y="131" class="code" fill="#9EE0A0">interface</text>
  <text x="326" y="131" class="code" fill="#B8D880"> AppState</text>
  <text x="390" y="131" class="code" fill="#7AA878"> {</text>

  <!-- Line 5:   isRunning: boolean; -->
  <text x="235" y="148" class="line-num" fill="#3A5A3C">5</text>
  <text x="262" y="148" class="code" fill="#A8D4A2">  isRunning</text>
  <text x="340" y="148" class="code" fill="#7AA878">: </text>
  <text x="354" y="148" class="code" fill="#B8D880">boolean</text>
  <text x="404" y="148" class="code" fill="#7AA878">;</text>

  <!-- Line 6:   users: Map<string, User>; -->
  <text x="235" y="165" class="line-num" fill="#3A5A3C">6</text>
  <text x="262" y="165" class="code" fill="#A8D4A2">  users</text>
  <text x="304" y="165" class="code" fill="#7AA878">: </text>
  <text x="318" y="165" class="code" fill="#B8D880">Map</text>
  <text x="340" y="165" class="code" fill="#7AA878">&lt;</text>
  <text x="348" y="165" class="code" fill="#B8D880">string</text>
  <text x="390" y="165" class="code" fill="#7AA878">, </text>
  <text x="404" y="165" class="code" fill="#B8D880">User</text>
  <text x="432" y="165" class="code" fill="#7AA878">&gt;;</text>

  <!-- Line 7:   config: UserConfig; -->
  <text x="235" y="182" class="line-num" fill="#3A5A3C">7</text>
  <text x="262" y="182" class="code" fill="#A8D4A2">  config</text>
  <text x="312" y="182" class="code" fill="#7AA878">: </text>
  <text x="326" y="182" class="code" fill="#B8D880">UserConfig</text>
  <text x="392" y="182" class="code" fill="#7AA878">;</text>

  <!-- Line 8: } -->
  <text x="235" y="199" class="line-num" fill="#3A5A3C">8</text>
  <text x="262" y="199" class="code" fill="#7AA878">}</text>

  <!-- Line 9: empty -->
  <text x="235" y="216" class="line-num" fill="#3A5A3C">9</text>

  <!-- Line 10: async function startApp(config: UserConfig): Promise<void> { -->
  <text x="228" y="233" class="line-num" fill="#6A9A6A">10</text>
  <text x="262" y="233" class="code" fill="#C4D89A">async</text>
  <text x="298" y="233" class="code" fill="#9EE0A0"> function</text>
  <text x="362" y="233" class="code" fill="#8ACAB0"> startApp</text>
  <text x="420" y="233" class="code" fill="#7AA878">(</text>
  <text x="428" y="233" class="code" fill="#8ACAB0">config</text>
  <text x="470" y="233" class="code" fill="#7AA878">: </text>
  <text x="484" y="233" class="code" fill="#B8D880">UserConfig</text>
  <text x="550" y="233" class="code" fill="#7AA878">): </text>
  <text x="568" y="233" class="code" fill="#B8D880">Promise</text>
  <text x="618" y="233" class="code" fill="#7AA878">&lt;</text>
  <text x="626" y="233" class="code" fill="#B8D880">void</text>
  <text x="654" y="233" class="code" fill="#7AA878">&gt; {</text>

  <!-- Line 11:   const state: AppState = { -->
  <text x="228" y="250" class="line-num" fill="#3A5A3C">11</text>
  <text x="262" y="250" class="code" fill="#9EE0A0">  const</text>
  <text x="302" y="250" class="code" fill="#A8D4A2"> state</text>
  <text x="340" y="250" class="code" fill="#7AA878">: </text>
  <text x="354" y="250" class="code" fill="#B8D880">AppState</text>
  <text x="412" y="250" class="code" fill="#7AA878"> = {</text>

  <!-- Line 12:     isRunning: true, -->
  <text x="228" y="267" class="line-num" fill="#3A5A3C">12</text>
  <text x="262" y="267" class="code" fill="#A8D4A2">    isRunning</text>
  <text x="346" y="267" class="code" fill="#7AA878">: </text>
  <text x="360" y="267" class="code" fill="#B8D880">true</text>
  <text x="388" y="267" class="code" fill="#7AA878">,</text>

  <!-- Line 13:     users: new Map(), -->
  <text x="228" y="284" class="line-num" fill="#3A5A3C">13</text>
  <text x="262" y="284" class="code" fill="#A8D4A2">    users</text>
  <text x="304" y="284" class="code" fill="#7AA878">: </text>
  <text x="318" y="284" class="code" fill="#9EE0A0">new</text>
  <text x="340" y="284" class="code" fill="#8ACAB0"> Map</text>
  <text x="368" y="284" class="code" fill="#7AA878">(),</text>

  <!-- Line 14:     config, -->
  <text x="228" y="301" class="line-num" fill="#3A5A3C">14</text>
  <text x="262" y="301" class="code" fill="#A8D4A2">    config</text>
  <text x="312" y="301" class="code" fill="#7AA878">,</text>

  <!-- Line 15:   }; -->
  <text x="228" y="318" class="line-num" fill="#3A5A3C">15</text>
  <text x="262" y="318" class="code" fill="#7AA878">  };</text>

  <!-- Line 16:   console.log("App started", state.isRunning); -->
  <text x="228" y="335" class="line-num" fill="#3A5A3C">16</text>
  <text x="262" y="335" class="code" fill="#A8D4A2">  console</text>
  <text x="318" y="335" class="code" fill="#7AA878">.</text>
  <text x="326" y="335" class="code" fill="#8ACAB0">log</text>
  <text x="348" y="335" class="code" fill="#7AA878">(</text>
  <text x="356" y="335" class="code" fill="#6AAA5A">"App started"</text>
  <text x="442" y="335" class="code" fill="#7AA878">, </text>
  <text x="456" y="335" class="code" fill="#A8D4A2">state</text>
  <text x="492" y="335" class="code" fill="#7AA878">.</text>
  <text x="500" y="335" class="code" fill="#A8D4A2">isRunning</text>
  <text x="564" y="335" class="code" fill="#7AA878">);</text>

  <!-- Line 17: } -->
  <text x="228" y="352" class="line-num" fill="#3A5A3C">17</text>
  <text x="262" y="352" class="code" fill="#7AA878">}</text>

  <!-- Line 18: empty -->
  <text x="228" y="369" class="line-num" fill="#3A5A3C">18</text>

  <!-- Terminal panel -->
  <rect x="220" y="390" width="680" height="30" fill="#12201A"/>
  <line x1="220" y1="390" x2="900" y2="390" stroke="#2A3E2C60" stroke-width="1"/>
  <text x="232" y="409" class="tab-text" fill="#7AA878" font-weight="bold">TERMINAL</text>
  <rect x="220" y="420" width="680" height="150" fill="#0C1610"/>
  <line x1="220" y1="420" x2="900" y2="420" stroke="#2A3E2C60" stroke-width="1"/>
  <text x="232" y="440" class="terminal-text" fill="#7AA878">$</text>
  <text x="246" y="440" class="terminal-text" fill="#A8D4A2"> npm run dev</text>
  <text x="232" y="458" class="terminal-text" fill="#7AA878"></text>
  <text x="232" y="476" class="terminal-text" fill="#7CB87A">&gt; eyerest-app@1.0.0 dev</text>
  <text x="232" y="494" class="terminal-text" fill="#7CB87A">&gt; ts-node src/app.ts</text>
  <text x="232" y="512" class="terminal-text" fill="#7AA878"></text>
  <text x="232" y="530" class="terminal-text" fill="#A8D4A2">Server running on port 3000</text>
  <text x="232" y="550" class="terminal-text" fill="#7AA878">$</text>
  <rect x="240" y="540" width="7" height="14" fill="#7CB87A" opacity="0.7"/>

  <!-- Status bar -->
  <rect x="0" y="570" width="900" height="30" fill="#12201A"/>
  <line x1="0" y1="570" x2="900" y2="570" stroke="#2A3E2C60" stroke-width="1"/>
  <text x="12" y="589" class="status-text" fill="#7AA878">main*</text>
  <text x="70" y="589" class="status-text" fill="#7AA878">0 errors</text>
  <text x="140" y="589" class="status-text" fill="#7AA878">0 warnings</text>
  <text x="750" y="589" class="status-text" fill="#7AA878">TypeScript</text>
  <text x="830" y="589" class="status-text" fill="#7AA878">UTF-8</text>
</svg>